<?xml version="1.0" standalone="no"?>
<!DOCTYPE svg PUBLIC "-//W3C//DTD SVG 20010904//EN"
 "http://www.w3.org/TR/2001/REC-SVG-20010904/DTD/svg10.dtd">
<svg version="1.0" xmlns="http://www.w3.org/2000/svg"
 width="546.000000pt" height="363.000000pt" viewBox="0 0 546.000000 363.000000"
 preserveAspectRatio="xMidYMid meet">
<metadata>
Created by potrace 1.10, written by Peter Selinger 2001-2011
</metadata>
<g transform="translate(0.000000,363.000000) scale(0.100000,-0.100000)"
fill="#93c47d" stroke="none">
<path d="M3743 3280 c-119 -3 -186 -9 -194 -17 -6 -6 -15 -29 -19 -50 -16 -80
-52 -199 -64 -211 -11 -11 -36 1 -144 73 -72 47 -146 91 -164 97 -18 6 -37 15
-42 19 -6 5 -21 9 -34 9 -13 0 -31 4 -41 10 -10 5 -76 17 -147 26 -111 14
-147 15 -259 5 -71 -7 -173 -21 -225 -31 -104 -21 -289 -76 -304 -91 -6 -5
-16 -9 -24 -9 -28 0 -202 -92 -312 -165 -113 -74 -133 -84 -144 -66 -7 11
-224 81 -251 81 -11 0 -49 6 -85 14 -135 30 -221 38 -420 43 -180 4 -217 3
-300 -15 -118 -25 -173 -49 -227 -99 -52 -49 -68 -102 -58 -198 19 -190 243
-491 512 -687 96 -70 112 -63 40 18 -24 27 -57 64 -73 83 -16 19 -34 39 -40
45 -25 26 -111 186 -127 235 -24 75 -23 213 3 268 39 88 119 146 257 189 90
28 418 26 565 -3 106 -22 148 -36 148 -52 0 -4 -27 -37 -61 -72 -203 -216
-312 -441 -355 -739 -17 -120 -17 -190 0 -310 32 -220 110 -391 236 -520 65
-66 188 -158 237 -177 8 -3 54 -28 101 -55 150 -87 295 -119 531 -119 145 0
285 15 381 41 110 29 186 53 195 61 16 15 52 10 145 -21 50 -16 97 -30 105
-30 9 0 23 -4 33 -9 15 -8 106 -26 332 -66 164 -29 283 -39 460 -39 155 0 201
4 284 23 156 34 238 84 291 176 76 133 1 367 -175 546 -53 53 -161 138 -210
165 -19 10 -38 24 -42 29 -4 6 -8 7 -8 4 0 -13 25 -55 66 -109 56 -74 93 -147
109 -217 30 -125 14 -204 -55 -274 -135 -135 -404 -176 -820 -123 -180 23
-244 38 -248 55 -2 9 21 31 55 55 66 44 78 55 220 182 92 82 108 92 142 92 65
0 151 22 161 40 5 10 16 46 24 81 7 35 28 118 46 184 33 127 49 188 73 297 21
89 32 108 65 109 15 1 167 4 337 8 l310 6 3 25 c2 14 15 70 29 125 13 55 29
120 34 145 6 25 14 53 19 62 6 10 10 31 10 47 0 25 -10 35 -67 72 l-68 44
-245 5 -245 5 1 38 c1 22 6 55 12 75 16 54 39 140 52 197 11 48 28 116 49 200
6 22 11 47 11 56 0 23 -158 121 -190 117 -8 -1 -97 -5 -197 -8z m-888 -570 c4
-6 9 -34 12 -63 7 -68 -3 -75 -97 -79 -73 -3 -74 -3 -81 -33 -20 -83 -33 -121
-46 -136 -31 -36 -372 -120 -417 -103 -30 12 -23 23 89 138 71 73 201 176 265
212 19 10 42 24 50 31 39 30 211 55 225 33z m345 -735 c10 -12 8 -33 -11 -107
-23 -94 -51 -140 -73 -118 -19 19 -51 9 -106 -35 -332 -270 -440 -319 -685
-318 l-130 1 -33 38 c-49 57 -72 118 -83 219 -9 86 -9 91 12 108 12 9 29 17
38 17 28 1 291 29 406 44 159 21 339 54 410 76 105 33 162 53 194 70 44 23 46
24 61 5z"/>
<path d="M3972 544 l-19 -27 -29 20 c-23 17 -43 21 -104 19 -73 -1 -75 -2 -89
-31 -8 -16 -18 -48 -23 -70 -4 -22 -16 -71 -27 -108 -20 -74 -17 -82 30 -75
15 2 25 13 31 33 10 37 33 55 72 55 17 0 45 9 61 20 17 11 33 20 38 20 11 0 8
-56 -5 -86 -10 -22 -10 -28 6 -39 28 -21 59 -4 69 39 11 43 27 48 27 8 0 -55
60 -80 109 -45 19 13 28 14 42 5 26 -17 50 -15 64 5 11 15 14 15 40 -5 15 -12
42 -22 60 -22 62 0 129 69 112 114 -4 9 -23 24 -42 32 -37 15 -42 23 -24 41 7
7 21 8 43 2 25 -7 34 -6 44 8 17 24 15 30 -14 50 -23 14 -32 15 -72 4 -26 -7
-54 -19 -64 -27 -15 -14 -17 -14 -28 5 -12 24 -52 28 -68 8 -6 -7 -16 -34 -22
-61 -15 -68 -37 -106 -61 -106 -30 0 -34 25 -14 90 10 32 15 66 12 74 -8 21
-36 20 -66 -1 l-24 -16 6 35 c9 60 -35 80 -71 32z m-114 -77 c5 -26 -16 -47
-49 -47 -24 0 -29 4 -29 23 0 13 6 29 12 35 18 18 62 11 66 -11z m181 -29 c0
-13 -4 -32 -8 -42 -7 -19 -8 -19 -13 2 -7 26 1 62 13 62 5 0 9 -10 8 -22z
m298 -78 c6 0 16 -7 23 -15 10 -12 8 -16 -11 -24 -13 -4 -28 -7 -34 -6 -5 2
-22 6 -37 9 -28 6 -36 32 -22 70 5 13 11 12 38 -9 18 -14 38 -25 43 -25z"/>
<path d="M2597 545 c-9 -9 -19 -32 -22 -53 -4 -20 -10 -46 -15 -57 -5 -11 -14
-42 -19 -70 -5 -27 -13 -60 -16 -72 -7 -23 -6 -23 74 -23 52 0 80 4 76 10 -3
6 -30 10 -60 10 -34 0 -55 5 -58 13 -6 19 13 91 26 99 7 4 38 8 70 8 31 0 57
5 57 10 0 6 -22 10 -49 10 -58 0 -72 13 -62 60 7 35 7 35 69 40 81 7 85 24 6
28 -46 2 -66 -1 -77 -13z"/>
<path d="M2845 490 c-3 -6 1 -12 9 -15 9 -3 22 -7 30 -9 7 -2 16 -19 19 -38
26 -131 52 -171 110 -161 20 3 37 10 37 15 0 6 -11 7 -25 4 -19 -5 -32 0 -50
18 -27 27 -24 60 6 77 16 8 17 14 9 30 -12 22 -6 39 16 39 8 0 14 5 14 10 0
16 57 12 64 -5 3 -8 11 -15 18 -15 16 0 38 -45 38 -77 0 -13 -7 -34 -15 -46
-9 -14 -11 -27 -5 -37 7 -11 11 -9 19 12 5 14 15 29 20 33 6 3 11 22 11 41 0
20 9 47 21 63 22 30 19 51 -7 51 -8 0 -14 -8 -14 -17 0 -10 -4 -24 -9 -32 -8
-13 -12 -13 -26 -1 -10 8 -21 24 -26 37 -20 54 -107 29 -145 -42 -24 -44 -34
-44 -34 0 0 22 -8 43 -20 55 -21 21 -55 26 -65 10z"/>
<path d="M3237 494 c-14 -14 -6 -24 19 -24 16 0 24 5 22 13 -5 14 -31 21 -41
11z"/>
<path d="M3328 472 c-21 -14 -38 -33 -38 -43 0 -10 -4 -21 -10 -24 -5 -3 -10
-23 -10 -44 0 -52 26 -75 76 -65 29 5 40 3 50 -11 17 -23 32 -11 40 33 3 20
13 56 21 78 20 57 15 74 -32 90 -51 17 -52 17 -97 -14z m98 -19 c15 -20 19
-63 6 -63 -5 0 -17 -18 -27 -41 -18 -39 -21 -41 -53 -35 -19 3 -40 10 -48 17
-14 12 -20 79 -6 79 4 0 16 14 27 30 16 23 27 30 54 30 20 0 39 -7 47 -17z"/>
<path d="M3500 473 c0 -43 13 -113 21 -113 16 0 10 106 -6 120 -12 10 -15 9
-15 -7z"/>
<path d="M3650 472 c-33 -41 -62 -104 -52 -114 7 -7 13 -2 17 13 5 13 19 41
32 62 26 41 28 70 3 39z"/>
<path d="M2770 465 c-7 -8 -15 -36 -18 -63 -3 -26 -11 -56 -18 -67 -16 -23
-18 -51 -4 -60 5 -3 12 7 16 22 3 15 12 42 20 60 8 17 14 37 14 44 0 7 9 23
21 35 21 23 19 44 -5 44 -8 0 -19 -7 -26 -15z"/>
<path d="M3085 399 c-4 -6 -5 -13 -2 -16 7 -7 27 6 27 18 0 12 -17 12 -25 -2z"/>
<path d="M2875 329 c-7 -43 0 -63 15 -39 12 19 13 80 1 80 -5 0 -12 -18 -16
-41z"/>
<path d="M3547 339 c-10 -6 -17 -22 -17 -41 0 -18 -7 -36 -17 -44 -13 -9 -15
-16 -7 -24 8 -8 19 1 43 36 31 48 38 69 23 78 -4 2 -15 0 -25 -5z"/>
<path d="M3368 253 c-10 -2 -18 -9 -18 -14 0 -13 13 -11 36 6 19 14 14 17 -18
8z"/>
<path d="M3265 240 c3 -5 15 -10 26 -10 11 0 17 5 14 10 -3 6 -15 10 -26 10
-11 0 -17 -4 -14 -10z"/>
</g>
</svg>
