 <svg version="1.0" xmlns="http://www.w3.org/2000/svg" width="700.000000pt" height="420.000000pt" viewBox="0 0 700.000000 420.000000" preserveAspectRatio="xMidYMid meet">
<metadata>
Created by potrace 1.12, written by Peter Selinger 2001-2015
</metadata>
<g transform="translate(0.000000,420.000000) scale(0.100000,-0.100000)" fill="#000000" stroke="none">
<path d="M5440 3770 c0 -5 9 -10 20 -10 11 0 20 5 20 10 0 6 -9 10 -20 10 -11
0 -20 -4 -20 -10z"></path>
<path d="M3947 3763 c-16 -15 -1 -18 98 -18 100 0 125 5 89 19 -21 8 -179 8
-187 -1z"></path>
<path d="M4550 3650 c0 -5 5 -10 10 -10 6 0 10 5 10 10 0 6 -4 10 -10 10 -5 0
-10 -4 -10 -10z"></path>
<path d="M3293 3643 c-41 -5 -44 -23 -4 -23 50 0 121 12 121 21 0 9 -55 10
-117 2z"></path>
<path d="M4590 3642 c0 -10 23 -15 125 -27 46 -5 49 -4 31 10 -11 8 -34 15
-50 15 -17 0 -48 3 -68 6 -24 4 -38 3 -38 -4z"></path>
<path d="M2948 3518 c-21 -6 -38 -14 -38 -20 0 -5 8 -7 18 -4 9 3 29 8 45 12
15 3 27 10 27 15 0 10 -2 10 -52 -3z"></path>
<path d="M5006 3358 c11 -83 35 -192 55 -257 27 -85 36 -248 20 -333 -15 -76
-74 -262 -108 -338 -30 -68 -50 -90 -138 -150 -86 -58 -155 -131 -155 -164 0
-29 8 -32 91 -41 l65 -7 75 51 c97 65 135 109 221 256 80 135 102 190 149 360
45 169 45 245 -4 384 -41 118 -72 162 -136 197 -24 13 -61 37 -82 54 -51 41
-60 39 -53 -12z"></path>
<path d="M2653 3383 c-13 -2 -23 -9 -23 -15 0 -6 10 -8 23 -4 12 3 25 6 30 6
4 0 7 5 7 10 0 6 -3 9 -7 9 -5 -1 -18 -4 -30 -6z"></path>
<path d="M2464 3256 c-10 -8 -16 -17 -12 -21 8 -8 48 13 48 25 0 14 -13 12
-36 -4z"></path>
<path d="M4090 3121 c0 -11 79 -36 87 -27 6 6 -24 21 -59 30 -16 4 -28 2 -28
-3z"></path>
<path d="M3483 3006 c-22 -10 -31 -26 -15 -26 10 1 46 29 41 33 -2 2 -14 -2
-26 -7z"></path>
<path d="M4250 2998 c0 -18 18 -34 28 -24 3 4 -2 14 -11 23 -16 16 -17 16 -17
1z"></path>
<path d="M3109 2732 c-24 -22 -29 -32 -18 -32 24 0 63 34 57 50 -3 9 -14 4
-39 -18z"></path>
<path d="M4190 2630 c-55 -23 -113 -25 -130 -5 -30 36 -90 -50 -90 -127 0 -34
-7 -52 -30 -78 -16 -19 -29 -38 -30 -42 0 -14 116 -8 163 8 84 28 197 161 197
230 0 40 -11 42 -80 14z"></path>
<path d="M3006 2618 c-10 -15 -16 -35 -14 -45 3 -14 8 -11 22 15 22 42 16 66
-8 30z"></path>
<path d="M1846 2608 c-19 -31 -30 -88 -17 -88 6 0 14 12 17 28 4 15 13 39 21
55 16 33 0 37 -21 5z"></path>
<path d="M2870 2400 c0 -5 5 -10 10 -10 6 0 10 5 10 10 0 6 -4 10 -10 10 -5 0
-10 -4 -10 -10z"></path>
<path d="M3830 2370 c0 -5 5 -10 10 -10 6 0 10 5 10 10 0 6 -4 10 -10 10 -5 0
-10 -4 -10 -10z"></path>
<path d="M3728 2363 c-32 -8 -20 -26 13 -19 17 3 40 6 50 6 11 0 19 5 19 10 0
10 -49 12 -82 3z"></path>
<path d="M1706 2318 c-10 -47 -13 -158 -5 -158 4 0 10 20 13 45 3 25 9 65 12
90 5 46 -11 66 -20 23z"></path>
<path d="M2968 2238 c17 -17 352 -16 352 2 0 6 -71 9 -181 9 -125 0 -178 -4
-171 -11z"></path>
<path d="M4453 1978 c-35 -5 -63 -14 -63 -20 0 -7 14 -8 38 -4 20 3 46 6 58 6
11 0 29 7 40 15 22 17 18 17 -73 3z"></path>
<path d="M4005 1850 c-60 -4 -122 -8 -137 -9 -16 0 -28 -6 -28 -12 0 -8 37
-10 133 -5 72 4 144 9 160 12 32 7 37 25 5 22 -13 -1 -72 -5 -133 -8z"></path>
<path d="M1580 1751 c-21 -40 -6 -211 18 -211 4 0 7 52 7 115 0 63 -3 115 -7
115 -4 0 -12 -9 -18 -19z"></path>
<path d="M2925 1723 c-152 -18 -120 -28 82 -26 194 3 263 9 263 24 0 8 -277
11 -345 2z"></path>
<path d="M2730 1516 c0 -62 13 -156 21 -156 10 0 12 97 3 153 -8 46 -24 49
-24 3z"></path>
<path d="M4508 1285 c-37 -37 -72 -64 -78 -60 -15 9 -60 -22 -60 -42 0 -13 5
-12 25 7 l25 23 0 -34 c0 -56 64 -206 118 -277 39 -51 170 -152 197 -152 13 0
43 15 67 33 24 18 51 36 61 40 9 3 17 13 17 21 0 26 -35 75 -60 85 -14 5 -46
16 -73 26 -76 27 -103 107 -73 221 30 116 14 161 -59 170 -38 5 -43 2 -107
-61z"></path>
<path d="M1702 1039 c4 -46 11 -76 21 -87 20 -19 35 -9 18 12 -6 7 -14 43 -18
80 -8 91 -27 86 -21 -5z"></path>
<path d="M4241 1086 c-10 -12 -8 -13 9 -9 25 7 37 23 17 23 -8 0 -20 -6 -26
-14z"></path>
<path d="M3960 969 c-25 -4 -95 -7 -155 -7 l-110 2 -70 -45 c-39 -25 -78 -48
-87 -52 -60 -22 49 -51 168 -46 66 4 92 10 159 42 44 21 93 49 110 61 16 13
47 26 68 30 20 4 37 11 37 16 0 12 -56 11 -120 -1z"></path>
<path d="M1830 790 c0 -5 5 -10 10 -10 6 0 10 5 10 10 0 6 -4 10 -10 10 -5 0
-10 -4 -10 -10z"></path>
<path d="M4513 581 c-23 -14 -43 -29 -43 -34 0 -14 55 5 79 28 34 33 13 36
-36 6z"></path>
<path d="M4258 443 c-19 -5 -25 -23 -9 -23 17 0 41 12 41 21 0 9 -4 10 -32 2z"></path>
<path d="M2339 321 c23 -21 71 -29 71 -12 0 5 -10 11 -22 14 -13 3 -34 8 -48
12 l-25 7 24 -21z"></path>
<path d="M4020 320 c0 -5 5 -10 10 -10 6 0 10 5 10 10 0 6 -4 10 -10 10 -5 0
-10 -4 -10 -10z"></path>
<path d="M3930 310 c0 -5 16 -10 35 -10 19 0 35 5 35 10 0 6 -16 10 -35 10
-19 0 -35 -4 -35 -10z"></path>
<path d="M3870 300 c0 -5 9 -10 20 -10 11 0 20 5 20 10 0 6 -9 10 -20 10 -11
0 -20 -4 -20 -10z"></path>
<path d="M2730 186 c13 -13 714 -22 818 -11 147 16 34 22 -383 22 -324 0 -443
-3 -435 -11z"></path>
</g>
</svg>